<?xml version="1.0" encoding="iso-8859-1"?>
<!-- Generator: Adobe Illustrator 16.0.0, SVG Export Plug-In . SVG Version: 6.00 Build 0)  -->
<!DOCTYPE svg PUBLIC "-//W3C//DTD SVG 1.1//EN" "http://www.w3.org/Graphics/SVG/1.1/DTD/svg11.dtd">
<svg version="1.1" id="Capa_1" xmlns="http://www.w3.org/2000/svg" xmlns:xlink="http://www.w3.org/1999/xlink" x="0px" y="0px"
	 width="222.522px" height="222.523px" viewBox="0 0 222.522 222.523" style="enable-background:new 0 0 222.522 222.523;"
	 xml:space="preserve">
<g>
	<path d="M187.771,97.921c-5.427-10.448,2.293-16.698,2.813-22.097c2.394-24.905-6.018-40.146-17.449-52.216
		C154.245,3.626,129.958-0.13,114.058,0.003C73.354,0.298,56.88,13.213,44.417,27.119c-25.924,28.93-20.439,54.335-20.439,54.335
		c0.618,15.069,21.409,42.495,21.409,42.495c16.571,23.826,8.429,42.203,8.429,42.203c33.467,7.53,60.902,56.371,60.902,56.371
		c1.211-7.229,17.292-37.765,17.292-37.765c6.721-8.446,18.005-5.484,24.099-4.74c17.472,2.152,21.816-2.99,21.816-2.99
		c3.818-2.329,2.01-12.059,2.01-12.059c-1.4-5.029,0.881-7.488,2.306-9.457c3.83-5.355,1.613-7.838,1.613-7.838
		c-1.206-1.513-0.396-2.316-0.396-2.316c4.215-1.407,4.522-3.712,4.522-3.712l-0.106-7.737c-0.697-5.326,1.708-5.633,1.708-5.633
		c9.652-0.184,9.439-6.432,9.439-6.432C199.409,118.417,187.771,97.921,187.771,97.921z M125.702,103.117l4.002,28.304
		l-37.155-23.283c-24.429-1.584-44.142-14.906-47.253-33.954C41.438,50.67,64.349,27.34,96.453,22.094
		c32.128-5.26,61.262,9.564,65.122,33.077C164.778,74.721,149.44,94.114,125.702,103.117z"/>
</g>
<g>
</g>
<g>
</g>
<g>
</g>
<g>
</g>
<g>
</g>
<g>
</g>
<g>
</g>
<g>
</g>
<g>
</g>
<g>
</g>
<g>
</g>
<g>
</g>
<g>
</g>
<g>
</g>
<g>
</g>
</svg>
